<?xml version="1.0" encoding="iso-8859-1"?>
<!-- Uploaded to: SVG Repo, www.svgrepo.com, Generator: SVG Repo Mixer Tools -->
<svg height="800px" width="800px" version="1.1" id="Layer_1" xmlns="http://www.w3.org/2000/svg" xmlns:xlink="http://www.w3.org/1999/xlink" 
	 viewBox="0 0 512 512" xml:space="preserve">
<circle style="fill:#E16600;" cx="256" cy="256" r="248.396"/>
<path style="fill:#153651;" d="M437.019,74.981C388.668,26.629,324.38,0,256,0S123.332,26.629,74.981,74.981
	C26.629,123.332,0,187.62,0,256s26.629,132.667,74.981,181.019C123.332,485.371,187.62,512,256,512s132.668-26.629,181.019-74.981
	S512,324.38,512,256S485.371,123.332,437.019,74.981z M437.08,414.711c-22.448-22.491-48.493-40.395-77.548-53.257
	c-30.372-13.446-62.607-20.721-95.926-21.682v-76.167h233.057C494.929,319.796,474.027,372.674,437.08,414.711z M15.339,263.604
	h69.32v-15.208h-69.32c1.732-56.192,22.633-109.07,59.583-151.107c22.448,22.49,48.493,40.395,77.548,53.257
	c30.372,13.446,62.607,20.721,95.926,21.682v76.167H104.939v15.208h143.457v76.167c-33.321,0.961-65.556,8.237-95.929,21.682
	c-29.054,12.863-55.099,30.768-77.546,53.258C37.973,372.675,17.071,319.796,15.339,263.604z M263.604,248.396v-76.167
	c33.32-0.961,65.556-8.237,95.927-21.682c29.055-12.863,55.1-30.768,77.546-53.257c36.949,42.037,57.851,94.915,59.583,151.108
	H263.604V248.396z M426.693,86.171c-21.201,21.334-45.83,38.3-73.317,50.469c-28.421,12.582-58.587,19.414-89.771,20.37V15.339
	c61.467,1.895,118.98,26.712,162.662,70.395C426.41,85.878,426.549,86.027,426.693,86.171z M248.396,15.339V157.01
	c-31.184-0.956-61.35-7.788-89.77-20.37c-27.489-12.169-52.118-29.135-73.318-50.468c0.144-0.145,0.283-0.293,0.427-0.438
	C129.416,42.052,186.929,17.234,248.396,15.339z M85.307,425.829c21.202-21.334,45.83-38.3,73.316-50.469
	c28.422-12.582,58.587-19.414,89.771-20.371V496.66c-61.467-1.895-118.98-26.712-162.662-70.395
	C85.59,426.122,85.451,425.973,85.307,425.829z M263.604,496.661V354.989c31.184,0.956,61.35,7.788,89.77,20.371
	c27.488,12.169,52.117,29.135,73.318,50.468c-0.144,0.145-0.283,0.294-0.428,0.438C382.584,469.948,325.071,494.766,263.604,496.661
	z"/>
</svg>